<?xml version="1.0" encoding="UTF-8" standalone="no"?>
<svg
   version="1.1"
   width="45"
   height="45"
   id="svg3128"
   sodipodi:docname="bq.svg"
   inkscape:version="1.2.2 (b0a84865, 2022-12-01)"
   xmlns:inkscape="http://www.inkscape.org/namespaces/inkscape"
   xmlns:sodipodi="http://sodipodi.sourceforge.net/DTD/sodipodi-0.dtd"
   xmlns="http://www.w3.org/2000/svg"
   xmlns:svg="http://www.w3.org/2000/svg">
  <sodipodi:namedview
     id="namedview13761"
     pagecolor="#ffffff"
     bordercolor="#000000"
     borderopacity="0.25"
     inkscape:showpageshadow="2"
     inkscape:pageopacity="0.0"
     inkscape:pagecheckerboard="0"
     inkscape:deskcolor="#d1d1d1"
     showgrid="false"
     inkscape:zoom="5.2444444"
     inkscape:cx="22.5"
     inkscape:cy="22.5"
     inkscape:window-width="1309"
     inkscape:window-height="456"
     inkscape:window-x="0"
     inkscape:window-y="25"
     inkscape:window-maximized="0"
     inkscape:current-layer="svg3128" />
  <defs
     id="defs13747" />
  <g
     id="g15241"
     style="stroke:#ffffff;stroke-width:3;stroke-dasharray:none">
    <g
       id="path15221"
       style="stroke:#ffffff;stroke-width:3;stroke-dasharray:none">
      <path
         style="color:#000000;fill:#000000;stroke-linecap:round;stroke-linejoin:round;stroke:#ffffff;stroke-width:3;stroke-dasharray:none"
         d="m 8,12 a 2,2 0 1 1 -4,0 2,2 0 1 1 4,0 z"
         id="path15245" />
      <path
         style="color:#000000;fill:#000000;stroke-linecap:round;stroke-linejoin:round;stroke:#ffffff;stroke-width:3;stroke-dasharray:none"
         d="M 6,9.5 C 5.3888895,9.5 4.7710592,9.701984 4.2929687,10.126953 3.8148783,10.551922 3.5,11.208334 3.5,12 c 0,0.791666 0.3148783,1.448078 0.7929687,1.873047 C 4.7710592,14.298016 5.3888895,14.5 6,14.5 6.6111105,14.5 7.2289408,14.298016 7.7070312,13.873047 8.1851217,13.448078 8.5,12.791666 8.5,12 8.5,11.208334 8.1851217,10.551922 7.7070312,10.126953 7.2289408,9.701984 6.6111105,9.5 6,9.5 Z m 0,1 c 0.3888885,0 0.77106,0.13135 1.0429687,0.373047 C 7.3148775,11.114743 7.5,11.458334 7.5,12 7.5,12.541666 7.3148775,12.885257 7.0429687,13.126953 6.77106,13.36865 6.3888885,13.5 6,13.5 5.6111115,13.5 5.22894,13.36865 4.9570312,13.126953 4.6851225,12.885257 4.5,12.541666 4.5,12 4.5,11.458334 4.6851225,11.114743 4.9570312,10.873047 5.22894,10.63135 5.6111115,10.5 6,10.5 Z"
         id="path15247" />
    </g>
    <g
       id="path15223"
       transform="translate(15.5,-5.5)"
       style="stroke:#ffffff;stroke-width:3;stroke-dasharray:none">
      <path
         style="color:#000000;fill:#000000;stroke-linecap:round;stroke-linejoin:round;stroke:#ffffff;stroke-width:3;stroke-dasharray:none"
         d="m 9,13 a 2,2 0 1 1 -4,0 2,2 0 1 1 4,0 z"
         id="path15251" />
      <path
         style="color:#000000;fill:#000000;stroke-linecap:round;stroke-linejoin:round;stroke:#ffffff;stroke-width:3;stroke-dasharray:none"
         d="M 7,10.5 C 6.3888895,10.5 5.7710592,10.701984 5.2929687,11.126953 4.8148783,11.551922 4.5,12.208334 4.5,13 c 0,0.791666 0.3148783,1.448078 0.7929687,1.873047 C 5.7710592,15.298016 6.3888895,15.5 7,15.5 7.6111105,15.5 8.2289408,15.298016 8.7070313,14.873047 9.1851217,14.448078 9.5,13.791666 9.5,13 9.5,12.208334 9.1851217,11.551922 8.7070313,11.126953 8.2289408,10.701984 7.6111105,10.5 7,10.5 Z m 0,1 c 0.3888885,0 0.77106,0.13135 1.0429688,0.373047 C 8.3148775,12.114743 8.5,12.458334 8.5,13 8.5,13.541666 8.3148775,13.885257 8.0429688,14.126953 7.77106,14.36865 7.3888885,14.5 7,14.5 6.6111115,14.5 6.22894,14.36865 5.9570312,14.126953 5.6851225,13.885257 5.5,13.541666 5.5,13 5.5,12.458334 5.6851225,12.114743 5.9570312,11.873047 6.22894,11.63135 6.6111115,11.5 7,11.5 Z"
         id="path15253" />
    </g>
    <g
       id="path15225"
       transform="translate(32,-1)"
       style="stroke:#ffffff;stroke-width:3;stroke-dasharray:none">
      <path
         style="color:#000000;fill:#000000;stroke-linecap:round;stroke-linejoin:round;stroke:#ffffff;stroke-width:3;stroke-dasharray:none"
         d="m 9,13 a 2,2 0 1 1 -4,0 2,2 0 1 1 4,0 z"
         id="path15257" />
      <path
         style="color:#000000;fill:#000000;stroke-linecap:round;stroke-linejoin:round;stroke:#ffffff;stroke-width:3;stroke-dasharray:none"
         d="M 7,10.5 C 6.3888895,10.5 5.7710592,10.701984 5.2929687,11.126953 4.8148783,11.551922 4.5,12.208334 4.5,13 c 0,0.791666 0.3148783,1.448078 0.7929687,1.873047 C 5.7710592,15.298016 6.3888895,15.5 7,15.5 7.6111105,15.5 8.2289408,15.298016 8.7070313,14.873047 9.1851217,14.448078 9.5,13.791666 9.5,13 9.5,12.208334 9.1851217,11.551922 8.7070313,11.126953 8.2289408,10.701984 7.6111105,10.5 7,10.5 Z m 0,1 c 0.3888885,0 0.77106,0.13135 1.0429688,0.373047 C 8.3148775,12.114743 8.5,12.458334 8.5,13 8.5,13.541666 8.3148775,13.885257 8.0429688,14.126953 7.77106,14.36865 7.3888885,14.5 7,14.5 6.6111115,14.5 6.22894,14.36865 5.9570312,14.126953 5.6851225,13.885257 5.5,13.541666 5.5,13 5.5,12.458334 5.6851225,12.114743 5.9570312,11.873047 6.22894,11.63135 6.6111115,11.5 7,11.5 Z"
         id="path15259" />
    </g>
    <g
       id="path15227"
       transform="translate(7,-4.5)"
       style="stroke:#ffffff;stroke-width:3;stroke-dasharray:none">
      <path
         style="color:#000000;fill:#000000;stroke-linecap:round;stroke-linejoin:round;stroke:#ffffff;stroke-width:3;stroke-dasharray:none"
         d="m 9,13 a 2,2 0 1 1 -4,0 2,2 0 1 1 4,0 z"
         id="path15263" />
      <path
         style="color:#000000;fill:#000000;stroke-linecap:round;stroke-linejoin:round;stroke:#ffffff;stroke-width:3;stroke-dasharray:none"
         d="M 7,10.5 C 6.3888895,10.5 5.7710592,10.701984 5.2929687,11.126953 4.8148783,11.551922 4.5,12.208334 4.5,13 c 0,0.791666 0.3148783,1.448078 0.7929687,1.873047 C 5.7710592,15.298016 6.3888895,15.5 7,15.5 7.6111105,15.5 8.2289408,15.298016 8.7070313,14.873047 9.1851217,14.448078 9.5,13.791666 9.5,13 9.5,12.208334 9.1851217,11.551922 8.7070313,11.126953 8.2289408,10.701984 7.6111105,10.5 7,10.5 Z m 0,1 c 0.3888885,0 0.77106,0.13135 1.0429688,0.373047 C 8.3148775,12.114743 8.5,12.458334 8.5,13 8.5,13.541666 8.3148775,13.885257 8.0429688,14.126953 7.77106,14.36865 7.3888885,14.5 7,14.5 6.6111115,14.5 6.22894,14.36865 5.9570312,14.126953 5.6851225,13.885257 5.5,13.541666 5.5,13 5.5,12.458334 5.6851225,12.114743 5.9570312,11.873047 6.22894,11.63135 6.6111115,11.5 7,11.5 Z"
         id="path15265" />
    </g>
    <g
       id="path15229"
       transform="translate(24,-4)"
       style="stroke:#ffffff;stroke-width:3;stroke-dasharray:none">
      <path
         style="color:#000000;fill:#000000;stroke-linecap:round;stroke-linejoin:round;stroke:#ffffff;stroke-width:3;stroke-dasharray:none"
         d="m 9,13 a 2,2 0 1 1 -4,0 2,2 0 1 1 4,0 z"
         id="path15269" />
      <path
         style="color:#000000;fill:#000000;stroke-linecap:round;stroke-linejoin:round;stroke:#ffffff;stroke-width:3;stroke-dasharray:none"
         d="M 7,10.5 C 6.3888895,10.5 5.7710592,10.701984 5.2929687,11.126953 4.8148783,11.551922 4.5,12.208334 4.5,13 c 0,0.791666 0.3148783,1.448078 0.7929687,1.873047 C 5.7710592,15.298016 6.3888895,15.5 7,15.5 7.6111105,15.5 8.2289408,15.298016 8.7070313,14.873047 9.1851217,14.448078 9.5,13.791666 9.5,13 9.5,12.208334 9.1851217,11.551922 8.7070313,11.126953 8.2289408,10.701984 7.6111105,10.5 7,10.5 Z m 0,1 c 0.3888885,0 0.77106,0.13135 1.0429688,0.373047 C 8.3148775,12.114743 8.5,12.458334 8.5,13 8.5,13.541666 8.3148775,13.885257 8.0429688,14.126953 7.77106,14.36865 7.3888885,14.5 7,14.5 6.6111115,14.5 6.22894,14.36865 5.9570312,14.126953 5.6851225,13.885257 5.5,13.541666 5.5,13 5.5,12.458334 5.6851225,12.114743 5.9570312,11.873047 6.22894,11.63135 6.6111115,11.5 7,11.5 Z"
         id="path15271" />
    </g>
    <g
       id="path15231"
       style="stroke:#ffffff;stroke-width:3;stroke-dasharray:none">
      <path
         style="color:#000000;fill:#000000;fill-rule:evenodd;stroke-width:3;stroke-linejoin:round;stroke:#ffffff;stroke-dasharray:none"
         d="m 9,26 c 8.5,-1.5 21,-1.5 27,0 L 38,14 31,25 V 11 l -5.5,13.5 -3,-15 -3,15 -5.5,-14 V 25 L 7,14 Z"
         id="path15275" />
      <path
         style="color:#000000;fill:#000000;fill-rule:evenodd;stroke-linejoin:round;stroke:#ffffff;stroke-width:3;stroke-dasharray:none"
         d="M 22.5,9 A 0.50005,0.50005 0 0 0 22.009766,9.4023438 L 19.34375,22.734375 14.464844,10.316406 A 0.50005,0.50005 0 0 0 13.5,10.5 V 23.283203 L 7.421875,13.732422 a 0.50005,0.50005 0 0 0 -0.9160156,0.349609 l 2,12 a 0.50005,0.50005 0 0 0 0.5800781,0.410156 c 8.4173755,-1.485419 20.9514945,-1.468181 26.7929685,-0.0078 a 0.50005,0.50005 0 0 0 0.615235,-0.402344 l 2,-12 A 0.50005,0.50005 0 0 0 37.578125,13.732422 L 31.5,23.283203 V 11 A 0.50005,0.50005 0 0 0 30.537109,10.810547 L 25.664062,22.771484 22.990234,9.4023438 A 0.50005,0.50005 0 0 0 22.5,9 Z m 0,3.048828 2.476562,12.378906 c -1.646102,-0.02792 -3.268734,0.0094 -4.966796,0.06836 z m -8,1.089844 4.476562,11.396484 C 17.443504,24.604364 15.983045,24.686585 14.5,24.826172 Z m 16,0.414062 V 24.654297 C 29.131174,24.533074 27.567483,24.51525 26.050781,24.470703 Z m -22.6015625,2.789063 5.4843755,8.621094 c -1.353564,0.1466 -2.732674,0.277574 -3.9667974,0.484375 z m 29.2031245,0 -1.515625,9.091797 C 34.473803,25.180929 33.11576,24.998406 31.695312,24.837891 Z"
         id="path15277" />
    </g>
    <g
       id="path15233"
       style="stroke:#ffffff;stroke-width:3;stroke-dasharray:none">
      <path
         style="color:#000000;fill:#000000;fill-rule:evenodd;stroke-width:3;stroke-linejoin:round;stroke:#ffffff;stroke-dasharray:none"
         d="m 9,26 c 0,2 1.5,2 2.5,4 1,1.5 1,1 0.5,3.5 -1.5,1 -1.5,2.5 -1.5,2.5 -1.5,1.5 0.5,2.5 0.5,2.5 6.5,1 16.5,1 23,0 0,0 1.5,-1 0,-2.5 0,0 0.5,-1.5 -1,-2.5 -0.5,-2.5 -0.5,-2 0.5,-3.5 1,-2 2.5,-2 2.5,-4 -8.5,-1.5 -18.5,-1.5 -27,0 z"
         id="path15281" />
      <path
         style="color:#000000;fill:#000000;fill-rule:evenodd;stroke-linejoin:round;stroke:#ffffff;stroke-width:3;stroke-dasharray:none"
         d="m 22.5,24.373047 c -4.651918,0 -9.302895,0.378935 -13.5859375,1.134765 A 0.50005,0.50005 0 0 0 8.5,26 c 0,1.124999 0.4920221,1.824053 1.0214844,2.353516 0.5294626,0.529462 1.0759716,0.958584 1.5312496,1.86914 a 0.50005,0.50005 0 0 0 0.03125,0.05469 c 0.257112,0.385667 0.45067,0.644222 0.56836,0.824218 0.11769,0.179997 0.149576,0.256834 0.166015,0.355469 0.03182,0.190936 -0.06555,0.713972 -0.298828,1.882813 -1.283245,1.050495 -1.483586,2.350401 -1.492187,2.533203 -0.3034538,0.366548 -0.5516234,0.741414 -0.5800784,1.111328 -0.034265,0.445448 0.1306072,0.834413 0.3339844,1.119141 0.406754,0.569456 0.996094,0.84375 0.996094,0.84375 a 0.50005,0.50005 0 0 0 0.146484,0.04687 c 6.576169,1.011718 16.576175,1.011718 23.152344,0 a 0.50005,0.50005 0 0 0 0.201172,-0.07813 c 0,0 0.488724,-0.310278 0.74414,-0.90625 0.231143,-0.539334 0.11294,-1.344565 -0.52539,-2.121094 0.04149,-0.163091 0.120172,-0.364791 0.0625,-0.826172 -0.06853,-0.548257 -0.405082,-1.22183 -1.085938,-1.775391 -0.218684,-1.098289 -0.321948,-1.644481 -0.291015,-1.830078 0.01644,-0.09864 0.04832,-0.175472 0.166015,-0.355469 0.11769,-0.179996 0.311248,-0.438551 0.56836,-0.824218 a 0.50005,0.50005 0 0 0 0.03125,-0.05469 c 0.455278,-0.910556 1.001787,-1.339678 1.53125,-1.86914 C 36.007978,27.824053 36.5,27.124999 36.5,26 A 0.50005,0.50005 0 0 0 36.085937,25.507812 C 31.802895,24.751982 27.151918,24.373047 22.5,24.373047 Z m 0,1.003906 c 4.424364,0 8.833144,0.363732 12.917969,1.052734 -0.08694,0.513055 -0.279645,0.849958 -0.646485,1.216797 -0.470536,0.470537 -1.174029,1.041418 -1.71875,2.13086 l 0.03125,-0.05469 c -0.242888,0.364333 -0.42433,0.605778 -0.572265,0.832031 -0.147935,0.226254 -0.272299,0.461918 -0.31836,0.738282 -0.09212,0.552728 0.06766,1.060974 0.316407,2.304687 a 0.50005,0.50005 0 0 0 0.21289,0.31836 c 0.632659,0.421772 0.795244,0.883434 0.84375,1.271484 0.04851,0.38805 -0.04102,0.654297 -0.04102,0.654297 a 0.50005,0.50005 0 0 0 0.121093,0.511719 c 0.65179,0.65179 0.576614,0.982692 0.457032,1.261718 -0.102007,0.238015 -0.266253,0.354735 -0.324219,0.400391 -6.40022,0.965431 -16.219632,0.965542 -22.605469,-0.0039 -0.0554,-0.0314 -0.378738,-0.208359 -0.580078,-0.490235 -0.109122,-0.152771 -0.163,-0.295057 -0.150391,-0.458984 0.01261,-0.163927 0.09408,-0.39291 0.410157,-0.708984 A 0.50005,0.50005 0 0 0 11,36 c 0,0 -0.03064,-1.211993 1.277344,-2.083984 a 0.50005,0.50005 0 0 0 0.21289,-0.31836 c 0.248743,-1.243713 0.408528,-1.751959 0.316407,-2.304687 -0.04606,-0.276364 -0.170425,-0.512028 -0.31836,-0.738282 -0.147935,-0.226253 -0.329377,-0.467698 -0.572265,-0.832031 l 0.03125,0.05469 C 11.402545,28.687902 10.699052,28.117021 10.228516,27.646484 9.861676,27.279645 9.6689696,26.942742 9.5820313,26.429687 13.666856,25.740685 18.075636,25.376953 22.5,25.376953 Z"
         id="path15283" />
    </g>
    <path
       style="color:#000000;fill:#ffffff;fill-rule:evenodd;stroke-linecap:round;stroke-linejoin:round;stroke:#ffffff;stroke-width:3;stroke-dasharray:none"
       d="m 22.5,28.75 c -2.321507,0 -4.641749,0.06352 -6.609375,0.189453 -1.967626,0.125928 -3.561635,0.304161 -4.527344,0.580078 a 0.5,0.5 0 0 0 -0.34375,0.617188 0.5,0.5 0 0 0 0.617188,0.34375 c 0.784289,-0.224083 2.377786,-0.42085 4.316406,-0.544922 C 17.891745,29.811475 20.196511,29.75 22.5,29.75 c 2.303489,0 4.608255,0.06148 6.546875,0.185547 1.93862,0.124072 3.532117,0.320839 4.316406,0.544922 a 0.5,0.5 0 0 0 0.617188,-0.34375 0.5,0.5 0 0 0 -0.34375,-0.617188 C 32.67101,29.243614 31.077001,29.065381 29.109375,28.939453 27.141749,28.813525 24.821507,28.75 22.5,28.75 Z"
       id="path15235" />
    <path
       style="color:#000000;fill:#ffffff;fill-rule:evenodd;stroke-linecap:round;stroke-linejoin:round;stroke:#ffffff;stroke-width:3;stroke-dasharray:none"
       d="m 22.5,32.246094 c -3.771102,0 -7.542045,0.253101 -10.582031,0.759765 a 0.5,0.5 0 0 0 -0.41211,0.576172 0.5,0.5 0 0 0 0.576172,0.41211 c 5.920016,-0.98667 14.915922,-0.98667 20.835938,0 a 0.5,0.5 0 0 0 0.576172,-0.41211 0.5,0.5 0 0 0 -0.41211,-0.576172 C 30.042045,32.499195 26.271102,32.246094 22.5,32.246094 Z"
       id="path15237" />
    <path
       style="color:#000000;fill:#ffffff;fill-rule:evenodd;stroke-linecap:round;stroke-linejoin:round;stroke:#ffffff;stroke-width:3;stroke-dasharray:none"
       d="m 22.25,34.734375 c -4.631595,0 -9.262801,0.25842 -11.847656,0.775391 a 0.5,0.5 0 0 0 -0.392578,0.58789 0.5,0.5 0 0 0 0.58789,0.392578 c 4.83028,-0.966055 18.474408,-0.966055 23.304688,0 a 0.5,0.5 0 0 0 0.58789,-0.392578 0.5,0.5 0 0 0 -0.392578,-0.58789 C 31.512801,34.992795 26.881595,34.734375 22.25,34.734375 Z"
       id="path15239" />
  </g>
  <g
     id="layer1">
    <path
       d="M 8 12 A 2 2 0 1 1  4,12 A 2 2 0 1 1  8 12 z"
       style="opacity:1;fill:#000000;fill-opacity:1;stroke:#000000;stroke-width:1;stroke-linecap:round;stroke-linejoin:round;stroke-miterlimit:4;stroke-dasharray:none;stroke-opacity:1"
       id="path5571" />
    <path
       d="M 9 13 A 2 2 0 1 1  5,13 A 2 2 0 1 1  9 13 z"
       transform="translate(15.5,-5.5)"
       style="opacity:1;fill:#000000;fill-opacity:1;stroke:#000000;stroke-width:1;stroke-linecap:round;stroke-linejoin:round;stroke-miterlimit:4;stroke-dasharray:none;stroke-opacity:1"
       id="path5573" />
    <path
       d="M 9 13 A 2 2 0 1 1  5,13 A 2 2 0 1 1  9 13 z"
       transform="translate(32,-1)"
       style="opacity:1;fill:#000000;fill-opacity:1;stroke:#000000;stroke-width:1;stroke-linecap:round;stroke-linejoin:round;stroke-miterlimit:4;stroke-dasharray:none;stroke-opacity:1"
       id="path5575" />
    <path
       d="M 9 13 A 2 2 0 1 1  5,13 A 2 2 0 1 1  9 13 z"
       transform="translate(7,-4.5)"
       style="opacity:1;fill:#000000;fill-opacity:1;stroke:#000000;stroke-width:1;stroke-linecap:round;stroke-linejoin:round;stroke-miterlimit:4;stroke-dasharray:none;stroke-opacity:1"
       id="path5577" />
    <path
       d="M 9 13 A 2 2 0 1 1  5,13 A 2 2 0 1 1  9 13 z"
       transform="translate(24,-4)"
       style="opacity:1;fill:#000000;fill-opacity:1;stroke:#000000;stroke-width:1;stroke-linecap:round;stroke-linejoin:round;stroke-miterlimit:4;stroke-dasharray:none;stroke-opacity:1"
       id="path5579" />
    <path
       d="M 9,26 C 17.5,24.5 30,24.5 36,26 L 38,14 L 31,25 L 31,11 L 25.5,24.5 L 22.5,9.5 L 19.5,24.5 L 14,10.5 L 14,25 L 7,14 L 9,26 z "
       style="fill:#000000;fill-opacity:1;fill-rule:evenodd;stroke:#000000;stroke-width:1px;stroke-linecap:butt;stroke-linejoin:round;stroke-opacity:1"
       id="path5581" />
    <path
       d="M 9,26 C 9,28 10.5,28 11.5,30 C 12.5,31.5 12.5,31 12,33.5 C 10.5,34.5 10.5,36 10.5,36 C 9,37.5 11,38.5 11,38.5 C 17.5,39.5 27.5,39.5 34,38.5 C 34,38.5 35.5,37.5 34,36 C 34,36 34.5,34.5 33,33.5 C 32.5,31 32.5,31.5 33.5,30 C 34.5,28 36,28 36,26 C 27.5,24.5 17.5,24.5 9,26 z "
       style="fill:#000000;fill-opacity:1;fill-rule:evenodd;stroke:#000000;stroke-width:1px;stroke-linecap:butt;stroke-linejoin:round;stroke-opacity:1"
       id="path5583" />
    <path
       d="M 11.5,30 C 15,29 30,29 33.5,30"
       style="fill:none;fill-opacity:0.75;fill-rule:evenodd;stroke:#ffffff;stroke-width:1px;stroke-linecap:round;stroke-linejoin:round;stroke-opacity:1"
       id="path5585" />
    <path
       d="M 12,33.5 C 18,32.5 27,32.5 33,33.5"
       style="fill:none;fill-opacity:0.75;fill-rule:evenodd;stroke:#ffffff;stroke-width:1px;stroke-linecap:round;stroke-linejoin:round;stroke-opacity:1"
       id="path5587" />
    <path
       d="M 10.5,36 C 15.5,35 29,35 34,36"
       style="fill:none;fill-opacity:0.75;fill-rule:evenodd;stroke:#ffffff;stroke-width:1px;stroke-linecap:round;stroke-linejoin:round;stroke-opacity:1"
       id="path5589" />
  </g>
</svg>
