<?xml version="1.0" encoding="UTF-8" standalone="no"?>
<svg
   version="1.1"
   width="45"
   height="45"
   id="svg3128"
   sodipodi:docname="bk.svg"
   inkscape:version="1.2.2 (b0a84865, 2022-12-01)"
   xmlns:inkscape="http://www.inkscape.org/namespaces/inkscape"
   xmlns:sodipodi="http://sodipodi.sourceforge.net/DTD/sodipodi-0.dtd"
   xmlns="http://www.w3.org/2000/svg"
   xmlns:svg="http://www.w3.org/2000/svg">
  <sodipodi:namedview
     id="namedview11200"
     pagecolor="#ffffff"
     bordercolor="#000000"
     borderopacity="0.25"
     inkscape:showpageshadow="2"
     inkscape:pageopacity="0.0"
     inkscape:pagecheckerboard="0"
     inkscape:deskcolor="#d1d1d1"
     showgrid="false"
     inkscape:zoom="5.2444444"
     inkscape:cx="22.5"
     inkscape:cy="22.5"
     inkscape:window-width="1309"
     inkscape:window-height="456"
     inkscape:window-x="0"
     inkscape:window-y="25"
     inkscape:window-maximized="0"
     inkscape:current-layer="svg3128" />
  <defs
     id="defs3130" />
  <g
     id="g16521"
     style="stroke:#ffffff;stroke-width:3;stroke-dasharray:none;fill:none">
    <path
       style="color:#000000;fill:none;fill-rule:evenodd;stroke-linecap:round;stroke:#ffffff;stroke-width:3;stroke-dasharray:none"
       d="M 22.5,5.25 A 0.75,0.75 0 0 0 21.75,6 v 5.625 a 0.75,0.75 0 0 0 0.75,0.75 0.75,0.75 0 0 0 0.75,-0.75 V 6 A 0.75,0.75 0 0 0 22.5,5.25 Z"
       id="path16505" />
    <g
       id="path16507"
       style="stroke:#ffffff;stroke-width:3;stroke-dasharray:none;fill:none">
      <path
         style="color:#000000;fill:none;fill-rule:evenodd;stroke-width:3;stroke:#ffffff;stroke-dasharray:none"
         d="m 22.5,25 c 0,0 4.5,-7.5 3,-10.5 0,0 -1,-2.5 -3,-2.5 -2,0 -3,2.5 -3,2.5 -1.5,3 3,10.5 3,10.5"
         id="path16529" />
      <path
         style="color:#000000;fill:none;fill-rule:evenodd;stroke:#ffffff;stroke-width:3;stroke-dasharray:none"
         d="m 22.5,11.25 c -1.312499,0 -2.259756,0.811023 -2.835938,1.53125 -0.560534,0.700668 -0.822851,1.362876 -0.83789,1.400391 -0.48946,0.992511 -0.45157,2.16324 -0.226563,3.363281 0.226237,1.206596 0.665218,2.464101 1.146485,3.61914 0.962533,2.31008 2.111328,4.222657 2.111328,4.222657 L 22.5,25 l 0.642578,0.386719 c 0,0 1.148795,-1.912577 2.111328,-4.222657 0.481267,-1.155039 0.920248,-2.412544 1.146485,-3.61914 0.225007,-1.200041 0.262897,-2.37077 -0.226563,-3.363281 -0.01504,-0.03752 -0.277356,-0.699723 -0.837891,-1.400391 C 24.759756,12.061023 23.812499,11.25 22.5,11.25 Z m 0,1.5 c 0.687499,0 1.240245,0.438978 1.664062,0.96875 0.423818,0.529772 0.638672,1.060547 0.638672,1.060547 l 0.01172,0.02734 0.01563,0.0293 c 0.252016,0.504032 0.293294,1.388238 0.09766,2.43164 -0.195638,1.043402 -0.600408,2.223402 -1.05664,3.318359 -0.621291,1.491097 -0.982104,2.04661 -1.371094,2.742188 -0.38899,-0.695578 -0.749803,-1.251091 -1.371094,-2.742188 -0.456232,-1.094957 -0.861002,-2.274957 -1.05664,-3.318359 -0.195638,-1.043402 -0.15436,-1.927608 0.09766,-2.43164 l 0.01563,-0.0293 0.01172,-0.02734 c 0,0 0.214854,-0.530775 0.638671,-1.060547 C 21.259755,13.188978 21.812501,12.75 22.5,12.75 Z"
         id="path16531" />
    </g>
    <g
       id="path16509"
       style="stroke:#ffffff;stroke-width:3;stroke-dasharray:none;fill:none">
      <path
         style="color:#000000;fill:none;fill-rule:evenodd;stroke-width:3;stroke-linecap:round;stroke-linejoin:round;stroke:#ffffff;stroke-dasharray:none"
         d="m 11.5,37 c 5.5,3.5 15.5,3.5 21,0 v -7 c 0,0 9,-4.5 6,-10.5 -4,-6.5 -13.5,-3.5 -16,4 V 27 23.5 C 19,16 9.5,13 6.5,19.5 c -3,6 5,10 5,10 z"
         id="path16535" />
      <path
         style="color:#000000;fill:none;fill-rule:evenodd;stroke-linecap:round;stroke-linejoin:round;stroke:#ffffff;stroke-width:3;stroke-dasharray:none"
         d="m 11.945313,15.181641 c -0.842925,0.01091 -1.664757,0.153877 -2.4375005,0.445312 -1.5407291,0.581075 -2.8568425,1.772334 -3.6796875,3.544922 -0.8208585,1.646268 -0.9076714,3.240814 -0.5371094,4.617187 0.3711547,1.378575 1.1667297,2.535475 2.0351563,3.470704 1.4530368,1.564808 2.9041541,2.384389 3.4238281,2.664062 V 37 a 0.750075,0.750075 0 0 0 0.347656,0.632812 C 14.021348,39.493344 18.012101,40.375 22,40.375 c 3.987899,0 7.978652,-0.881656 10.902344,-2.742188 A 0.750075,0.750075 0 0 0 33.25,37 v -6.572266 c 0.534953,-0.283442 2.215015,-1.205249 3.90625,-2.896484 0.990532,-0.990532 1.908233,-2.199309 2.382812,-3.623047 0.47458,-1.423737 0.464712,-3.076437 -0.36914,-4.744141 a 0.750075,0.750075 0 0 0 -0.03125,-0.05664 c -2.165887,-3.519567 -5.959487,-4.52464 -9.400391,-3.580078 -3.026629,0.830839 -5.772773,3.15594 -7.314453,6.40625 -1.929356,-3.250566 -4.873607,-5.572152 -7.912109,-6.40625 -0.857813,-0.235478 -1.723482,-0.356619 -2.566406,-0.345703 z m 20.376953,1.488281 c 2.144703,0.0094 4.140646,0.983612 5.515625,3.195312 0.650613,1.31932 0.645606,2.471385 0.279296,3.570313 -0.36917,1.10751 -1.138971,2.148737 -2.023437,3.033203 -1.768932,1.768932 -3.929687,2.861328 -3.929688,2.861328 A 0.750075,0.750075 0 0 0 31.75,30 v 6.507812 C 29.186647,38.02926 25.620113,38.875 22,38.875 c -3.620113,0 -7.186647,-0.84574 -9.75,-2.367188 V 29.5 a 0.750075,0.750075 0 0 0 -0.414062,-0.669922 c 0,0 -1.8989664,-0.960304 -3.4121099,-2.589844 C 7.6672564,25.425465 7.025329,24.45736 6.7402344,23.398437 6.4551398,22.339515 6.4944581,21.186865 7.1699219,19.835937 a 0.750075,0.750075 0 0 0 0.011719,-0.02148 c 0.6776863,-1.46832 1.6685371,-2.336777 2.8574224,-2.785156 1.188884,-0.44838 2.602346,-0.460684 4.074218,-0.05664 2.90912,0.798582 5.96647,3.245958 7.636719,6.728516 V 27 h 1.5 v -3.345703 c 1.187055,-3.460657 3.977431,-5.883013 6.886719,-6.681641 0.733522,-0.201359 1.467062,-0.305867 2.185547,-0.302734 z"
         id="path16537" />
    </g>
    <path
       style="color:#000000;fill:none;fill-rule:evenodd;stroke-linecap:round;stroke:#ffffff;stroke-width:3;stroke-dasharray:none"
       d="M 20,7.25 A 0.75,0.75 0 0 0 19.25,8 0.75,0.75 0 0 0 20,8.75 h 5 A 0.75,0.75 0 0 0 25.75,8 0.75,0.75 0 0 0 25,7.25 Z"
       id="path16511" />
    <path
       style="color:#000000;fill:none;fill-rule:evenodd;stroke-linecap:round;stroke:#ffffff;stroke-width:3;stroke-dasharray:none"
       d="m 22.011719,26.9375 c -3.963671,-0.06393 -7.916384,0.558051 -10.822266,1.878906 a 0.75,0.75 0 0 0 -0.373047,0.994141 0.75,0.75 0 0 0 0.994141,0.373047 C 14.40466,29.004452 18.20196,28.37643 21.988281,28.4375 c 3.786321,0.06107 7.570097,0.812205 10.152344,2.220703 a 0.75,0.75 0 0 0 1.017578,-0.298828 0.75,0.75 0 0 0 -0.298828,-1.017578 C 29.941627,27.750298 25.97539,27.00143 22.011719,26.9375 Z"
       id="path16513" />
    <path
       style="color:#000000;fill:none;fill-rule:evenodd;stroke-linecap:round;stroke-linejoin:round;stroke:#ffffff;stroke-width:3;stroke-dasharray:none"
       d="m 22,34.375 c -3.955641,0 -7.904665,0.620551 -10.810547,1.941406 a 0.75,0.75 0 0 0 -0.373047,0.994141 0.75,0.75 0 0 0 0.994141,0.373047 C 14.40466,36.504452 18.205649,35.875 22,35.875 c 3.794351,0 7.59534,0.629452 10.189453,1.808594 a 0.75,0.75 0 0 0 0.994141,-0.373047 0.75,0.75 0 0 0 -0.373047,-0.994141 C 29.904665,34.995551 25.955641,34.375 22,34.375 Z"
       id="path16515" />
    <path
       style="color:#000000;fill:none;fill-rule:evenodd;stroke-linecap:round;stroke-linejoin:round;stroke:#ffffff;stroke-width:3;stroke-dasharray:none"
       d="m 22,31.220703 c -3.934552,0 -7.868666,0.52433 -10.755859,1.574219 a 0.75,0.75 0 0 0 -0.449219,0.960937 0.75,0.75 0 0 0 0.960937,0.449219 c 5.225603,-1.900219 15.262679,-1.900219 20.488282,0 a 0.75,0.75 0 0 0 0.960937,-0.449219 0.75,0.75 0 0 0 -0.449219,-0.960937 C 29.868666,31.745033 25.934552,31.220703 22,31.220703 Z"
       id="path16517" />
    <path
       style="color:#000000;fill:none;fill-rule:evenodd;stroke-linecap:round;stroke-linejoin:round;stroke:#ffffff;stroke-width:3;stroke-dasharray:none"
       d="m 12.580078,16.285156 c -0.846896,-0.06879 -1.676665,-0.01578 -2.464844,0.179688 -1.5763574,0.390938 -2.9696641,1.400962 -3.7890621,3.048828 a 0.750075,0.750075 0 0 0 -0.015625,0.0293 c -0.690353,1.562588 -0.7111743,3.049579 -0.3261719,4.314453 0.3850024,1.264874 1.1464405,2.306103 1.9667969,3.136719 1.6407127,1.66123 3.5839841,2.535156 3.5839841,2.535156 a 0.75,0.75 0 0 0 0.994141,-0.371094 0.75,0.75 0 0 0 -0.373047,-0.994141 c 0,0 -1.728809,-0.799093 -3.1367187,-2.224609 C 8.3155766,25.226695 7.7079188,24.372514 7.4179687,23.419922 7.129803,22.473192 7.1296423,21.425431 7.6777344,20.171875 c 0.6350873,-1.269077 1.590354,-1.952251 2.7988286,-2.251953 1.212442,-0.300687 2.68948,-0.173904 4.185546,0.332031 2.960774,1.001264 5.916544,3.486159 7.089844,6.427734 l 0.0098,1.921875 a 0.750075,0.750075 0 0 0 1.5,-0.0098 l -0.0098,-1.919922 c 1.181402,-2.966176 3.909221,-5.427988 6.742188,-6.421875 1.432802,-0.502668 2.87504,-0.633019 4.146484,-0.328125 1.251762,0.300174 2.348008,1.013054 3.214844,2.291016 0.51026,1.209754 0.455887,2.258144 0.07227,3.257812 -0.390871,1.018558 -1.145249,1.97201 -2,2.775391 -1.709501,1.606762 -3.748046,2.576172 -3.748047,2.576172 a 0.75,0.75 0 0 0 -0.357421,0.998046 0.75,0.75 0 0 0 0.998046,0.357422 c 0,0 2.212771,-1.031405 4.134766,-2.83789 0.960998,-0.903243 1.865981,-2.008733 2.373047,-3.330078 0.507066,-1.321346 0.579533,-2.875373 -0.115234,-4.462891 a 0.750075,0.750075 0 0 0 -0.0625,-0.115234 c -1.066544,-1.608477 -2.547448,-2.58202 -4.160157,-2.96875 -1.612709,-0.38673 -3.340867,-0.208237 -4.992187,0.371093 -2.866129,1.005521 -5.47307,3.249132 -7.007813,6.09375 -1.591544,-2.863621 -4.388389,-5.094948 -7.347656,-6.095703 -0.851721,-0.288032 -1.715604,-0.478085 -2.5625,-0.546875 z"
       id="path16519" />
  </g>
  <g
     id="layer1">
    <path
       d="M 22.5,11.625 L 22.5,6"
       style="fill:none;fill-opacity:0.75;fill-rule:evenodd;stroke:#000000;stroke-width:1.5;stroke-linecap:round;stroke-linejoin:miter;stroke-miterlimit:4;stroke-dasharray:none;stroke-opacity:1"
       id="path6570" />
    <path
       d="M 22.5,25 C 22.5,25 27,17.5 25.5,14.5 C 25.5,14.5 24.5,12 22.5,12 C 20.5,12 19.5,14.5 19.5,14.5 C 18,17.5 22.5,25 22.5,25"
       style="fill:#000000;fill-opacity:1;fill-rule:evenodd;stroke:#000000;stroke-width:1.5;stroke-linecap:butt;stroke-linejoin:miter;stroke-miterlimit:4;stroke-dasharray:none;stroke-opacity:1"
       id="path5683" />
    <path
       d="M 11.5,37 C 17,40.5 27,40.5 32.5,37 L 32.5,30 C 32.5,30 41.5,25.5 38.5,19.5 C 34.5,13 25,16 22.5,23.5 L 22.5,27 L 22.5,23.5 C 19,16 9.5,13 6.5,19.5 C 3.5,25.5 11.5,29.5 11.5,29.5 L 11.5,37 z "
       style="fill:#000000;fill-opacity:1;fill-rule:evenodd;stroke:#000000;stroke-width:1.5;stroke-linecap:round;stroke-linejoin:round;stroke-miterlimit:4;stroke-dasharray:none;stroke-opacity:1"
       id="path5681" />
    <path
       d="M 20,8 L 25,8"
       style="fill:none;fill-opacity:0.75;fill-rule:evenodd;stroke:#000000;stroke-width:1.5;stroke-linecap:round;stroke-linejoin:miter;stroke-miterlimit:4;stroke-dasharray:none;stroke-opacity:1"
       id="path6572" />
    <path
       d="M 11.5,29.5 C 17,27 27,27 32.5,30"
       style="fill:none;fill-opacity:0.75;fill-rule:evenodd;stroke:#ffffff;stroke-width:1.5;stroke-linecap:round;stroke-linejoin:miter;stroke-miterlimit:4;stroke-dasharray:none;stroke-opacity:1"
       id="path6574" />
    <path
       d="M 11.5,37 C 17,34.5 27,34.5 32.5,37"
       style="fill:none;fill-opacity:0.75;fill-rule:evenodd;stroke:#ffffff;stroke-width:1.5;stroke-linecap:round;stroke-linejoin:round;stroke-miterlimit:4;stroke-dasharray:none;stroke-opacity:1"
       id="path6576" />
    <path
       d="M 11.5,33.5 C 17,31.5 27,31.5 32.5,33.5"
       style="fill:none;fill-opacity:0.75;fill-rule:evenodd;stroke:#ffffff;stroke-width:1.5;stroke-linecap:round;stroke-linejoin:round;stroke-miterlimit:4;stroke-dasharray:none;stroke-opacity:1"
       id="path6578" />
    <path
       d="M 32,29.5 C 32,29.5 40.5,25.5 38.026,19.847 C 34.147,13.997 25,18 22.5,24.5 L 22.512,26.597 L 22.5,24.5 C 20,18 9.9064,13.997 6.9975,19.847 C 4.5,25.5 11.846,28.847 11.846,28.847"
       style="fill:none;fill-opacity:1;fill-rule:evenodd;stroke:#ffffff;stroke-width:1.5;stroke-linecap:round;stroke-linejoin:round;stroke-miterlimit:4;stroke-dasharray:none;stroke-opacity:1"
       id="path5638" />
  </g>
</svg>
