<?xml version="1.0" encoding="UTF-8" standalone="no"?>
<svg
   version="1.1"
   width="45"
   height="45"
   id="svg3128"
   sodipodi:docname="bn.svg"
   inkscape:version="1.2.2 (b0a84865, 2022-12-01)"
   xmlns:inkscape="http://www.inkscape.org/namespaces/inkscape"
   xmlns:sodipodi="http://sodipodi.sourceforge.net/DTD/sodipodi-0.dtd"
   xmlns="http://www.w3.org/2000/svg"
   xmlns:svg="http://www.w3.org/2000/svg">
  <sodipodi:namedview
     id="namedview12053"
     pagecolor="#ffffff"
     bordercolor="#000000"
     borderopacity="0.25"
     inkscape:showpageshadow="2"
     inkscape:pageopacity="0.0"
     inkscape:pagecheckerboard="0"
     inkscape:deskcolor="#d1d1d1"
     showgrid="false"
     inkscape:zoom="5.2444444"
     inkscape:cx="22.5"
     inkscape:cy="22.5"
     inkscape:window-width="1309"
     inkscape:window-height="456"
     inkscape:window-x="0"
     inkscape:window-y="25"
     inkscape:window-maximized="0"
     inkscape:current-layer="svg3128" />
  <defs
     id="defs3130" />
  <g
     id="g16091"
     style="stroke:#ffffff;stroke-width:3;stroke-dasharray:none">
    <g
       id="path16081"
       style="stroke:#ffffff;stroke-width:3;stroke-dasharray:none">
      <path
         style="color:#000000;fill:#000000;fill-rule:evenodd;stroke-width:3;stroke-linecap:round;stroke:#ffffff;stroke-dasharray:none"
         d="m 22,10 c 10.5,1 16.5,8 16,29 H 15 c 0,-9 10,-6.5 8,-21"
         id="path16095" />
      <path
         style="color:#000000;fill:#000000;fill-rule:evenodd;stroke-linecap:round;stroke:#ffffff;stroke-width:3;stroke-dasharray:none"
         d="m 22.046875,9.5019531 a 0.5,0.5 0 0 0 -0.544922,0.4511719 0.5,0.5 0 0 0 0.451172,0.544922 c 5.149327,0.490412 9.077732,2.395308 11.746094,6.761719 2.623055,4.292272 3.983228,11.084525 3.792968,21.240234 H 15.572266 c 0.09391,-1.838599 0.586095,-3.164703 1.365234,-4.246094 0.857477,-1.190118 2.021198,-2.161164 3.169922,-3.341797 2.297447,-2.361265 4.403552,-5.62259 3.388672,-12.980468 a 0.5,0.5 0 0 0 -0.564453,-0.427735 0.5,0.5 0 0 0 -0.427735,0.564453 c 0.985118,7.142108 -0.90878,9.880802 -3.111328,12.144532 C 18.291304,31.344756 17.080021,32.342465 16.125,33.667969 15.169979,34.993473 14.5,36.65741 14.5,39 v 0.5 H 38.488281 L 38.5,39.011719 C 38.751164,28.462829 37.382414,21.373815 34.550781,16.740234 31.719149,12.106654 27.397538,10.01154 22.046875,9.5019531 Z"
         id="path16097" />
    </g>
    <g
       id="path16083"
       style="stroke:#ffffff;stroke-width:3;stroke-dasharray:none">
      <path
         style="color:#000000;fill:#000000;fill-rule:evenodd;stroke-width:3;stroke-linecap:round;stroke-linejoin:round;stroke:#ffffff;stroke-dasharray:none"
         d="m 24,18 c 0.384,2.911 -5.553,7.369 -8,9 -3,2 -2.819,4.343 -5,4 -1.0417,-0.944 1.413,-3.038 0,-3 -1,0 0.187,1.232 -1,2 -1,0 -4.0032,1 -4,-4 0,-2 6,-12 6,-12 0,0 1.886,-1.902 2,-3.5 -0.726,-0.9944 -0.5,-2 -0.5,-3 1,-1 3,2.5 3,2.5 h 2 c 0,0 0.782,-1.9919 2.5,-3 1,0 1,3 1,3"
         id="path16101" />
      <path
         style="color:#000000;fill:#000000;fill-rule:evenodd;stroke-linecap:round;stroke-linejoin:round;stroke:#ffffff;stroke-width:3;stroke-dasharray:none"
         d="m 21,6.5 a 0.50005,0.50005 0 0 0 -0.253906,0.068359 C 19.088095,7.5412517 18.39108,9.0611732 18.203125,9.5 h -1.443359 c -0.122504,-0.2087626 -0.434934,-0.7672329 -1,-1.4453125 C 15.428025,7.6565993 15.064752,7.2786307 14.638672,7.0351562 14.425632,6.913419 14.187618,6.8203125 13.916016,6.8203125 c -0.271603,0 -0.563509,0.1201494 -0.769532,0.3261719 A 0.50005,0.50005 0 0 0 13,7.5 c 0,0.8445339 -0.122509,1.9265799 0.488281,2.994141 -0.05449,0.615055 -0.482828,1.430452 -0.9375,2.0625 -0.46116,0.641066 -0.90625,1.091796 -0.90625,1.091797 a 0.50005,0.50005 0 0 0 -0.07422,0.09375 c 0,0 -1.503668,2.506397 -3.0097661,5.267578 -0.7530493,1.38059 -1.5054957,2.826035 -2.0761719,4.0625 C 6.1990369,23.690498 5.9593642,24.256085 5.7871094,24.744141 5.6148546,25.232196 5.5,25.625 5.5,26 c -8.32e-4,1.300041 0.19022,2.248751 0.5332031,2.953125 0.3429832,0.704374 0.8564682,1.150366 1.3945313,1.380859 C 8.5038605,30.794971 9.666667,30.5 10,30.5 a 0.50005,0.50005 0 0 0 0.271484,-0.08008 c 0.04249,-0.02749 0.04113,-0.07199 0.08008,-0.101563 -0.005,0.364609 -0.0035,0.766384 0.3125,1.052735 a 0.50005,0.50005 0 0 0 0.257812,0.123047 c 0.630503,0.09916 1.180694,-0.004 1.615234,-0.265625 0.434541,-0.261636 0.743815,-0.637689 1.054688,-1.046875 0.621746,-0.818373 1.26439,-1.818188 2.685547,-2.765625 1.243151,-0.828599 3.353001,-2.359417 5.130859,-4.076172 0.888929,-0.858378 1.695293,-1.762506 2.269531,-2.667969 0.574239,-0.905463 0.938371,-1.826557 0.81836,-2.736328 a 0.5,0.5 0 0 0 -0.560547,-0.431641 0.5,0.5 0 0 0 -0.431641,0.560547 c 0.07199,0.545728 -0.162505,1.272168 -0.669922,2.072266 -0.507416,0.800098 -1.265946,1.660504 -2.11914,2.484375 -1.706388,1.647741 -3.788341,3.16049 -4.992188,3.96289 -1.57884,1.052561 -2.344731,2.224812 -2.927734,2.992188 -0.291501,0.383688 -0.53476,0.653168 -0.773438,0.796875 -0.181862,0.109499 -0.437171,0.110195 -0.71875,0.101562 -0.02749,-0.06685 -0.07982,-0.109376 -0.05273,-0.253906 0.04357,-0.232493 0.1876,-0.555157 0.339844,-0.871094 0.152244,-0.315937 0.329949,-0.592585 0.359375,-0.992187 0.01471,-0.199801 -0.06003,-0.499627 -0.275391,-0.669922 -0.213496,-0.168821 -0.447353,-0.191337 -0.68164,-0.185547 -0.173565,7.17e-4 -0.344171,0.02246 -0.509766,0.111328 -0.16815,0.09024 -0.30339,0.261765 -0.361328,0.416016 -0.115878,0.308502 -0.06178,0.520812 -0.05078,0.710937 0.011,0.190125 0.008,0.347687 -0.03125,0.470703 -0.02987,0.09368 -0.1240226,0.185182 -0.2363286,0.28125 C 9.1706956,29.52064 8.4339231,29.678871 7.8203125,29.416016 7.4829764,29.271509 7.1821069,29.03 6.9316406,28.515625 6.6811744,28.00125 6.499232,27.199956 6.5,26 c 0,-0.125 0.072646,-0.482197 0.2285156,-0.923828 0.1558699,-0.441631 0.384948,-0.985421 0.6621094,-1.585938 0.5543227,-1.201032 1.3018789,-2.630593 2.0488281,-4 1.4899949,-2.731657 2.9746349,-5.205769 2.9824219,-5.21875 0.05942,-0.06065 0.464766,-0.468272 0.941406,-1.130859 0.51034,-0.709432 1.064842,-1.625302 1.134766,-2.605469 a 0.50005,0.50005 0 0 0 -0.09375,-0.330078 C 13.874833,9.479873 13.964821,8.7413656 13.994141,7.8496094 c 0.04152,0.010126 0.0732,0.00974 0.148437,0.052734 0.230169,0.1315253 0.554397,0.4410578 0.847656,0.7929688 0.586519,0.7038221 1.076172,1.5527345 1.076172,1.5527345 A 0.50005,0.50005 0 0 0 16.5,10.5 h 2 a 0.50005,0.50005 0 0 0 0.464844,-0.316406 c 0,0 0.737594,-1.6372628 2.109375,-2.574219 0.02044,0.029371 0.03412,0.036982 0.05664,0.082031 0.100873,0.2017452 0.191944,0.5422847 0.25,0.8906251 C 21.496973,9.278712 21.5,10 21.5,10 A 0.5,0.5 0 0 0 22,10.5 0.5,0.5 0 0 0 22.5,10 c 0,0 0.003,-0.7787135 -0.130859,-1.5820312 C 22.302197,8.0163099 22.205768,7.606848 22.025391,7.2460937 21.935202,7.0657166 21.823412,6.8932821 21.65625,6.75 21.489088,6.6067179 21.25,6.5 21,6.5 Z"
         id="path16103" />
    </g>
    <g
       id="path16085"
       transform="translate(0.5,2)"
       style="stroke:#ffffff;stroke-width:3;stroke-dasharray:none">
      <path
         style="color:#000000;fill:#000000;stroke-linecap:round;stroke-linejoin:round;stroke:#ffffff;stroke-width:3;stroke-dasharray:none"
         d="m 9,23.5 a 0.5,0.5 0 1 1 -1,0 0.5,0.5 0 1 1 1,0 z"
         id="path16107" />
      <path
         style="color:#000000;fill:#ffffff;stroke-linecap:round;stroke-linejoin:round;stroke:#ffffff;stroke-width:3;stroke-dasharray:none"
         d="m 8.5,22.5 c -0.2361108,0 -0.4789405,0.07698 -0.6757813,0.251953 C 7.627378,22.926923 7.5,23.208334 7.5,23.5 c 0,0.291666 0.127378,0.573077 0.3242187,0.748047 C 8.0210595,24.423016 8.2638892,24.5 8.5,24.5 8.7361108,24.5 8.9789405,24.423016 9.1757813,24.248047 9.372622,24.073077 9.5,23.791666 9.5,23.5 9.5,23.208334 9.372622,22.926923 9.1757813,22.751953 8.9789405,22.576984 8.7361108,22.5 8.5,22.5 Z"
         id="path16109" />
    </g>
    <g
       id="path16087"
       transform="matrix(0.866,0.5,-0.5,0.866,9.6926,-5.1734)"
       style="stroke:#ffffff;stroke-width:3.000066;stroke-dasharray:none">
      <path
         style="color:#000000;fill:#000000;stroke-linecap:round;stroke-linejoin:round;stroke:#ffffff;stroke-width:3.000066;stroke-dasharray:none"
         d="m 15,15.5 a 0.5,1.5 0 1 1 -1,0 0.5,1.5 0 1 1 1,0 z"
         id="path16113" />
      <path
         style="color:#000000;fill:#ffffff;stroke-linecap:round;stroke-linejoin:round;stroke:#ffffff;stroke-width:3.000066;stroke-dasharray:none"
         d="m 14.5,13.5 c -0.229166,0 -0.425774,0.120696 -0.548828,0.251953 C 13.828118,13.88321 13.750408,14.031464 13.6875,14.199219 13.561684,14.534728 13.5,14.958334 13.5,15.5 c 0,0.541666 0.06168,0.965272 0.1875,1.300781 0.06291,0.167755 0.140618,0.316009 0.263672,0.447266 C 14.074226,17.379304 14.270834,17.5 14.5,17.5 c 0.229166,0 0.425774,-0.120696 0.548828,-0.251953 C 15.171882,17.11679 15.249592,16.968536 15.3125,16.800781 15.438316,16.465272 15.5,16.041666 15.5,15.5 15.5,14.958334 15.438316,14.534728 15.3125,14.199219 15.249592,14.031464 15.171882,13.88321 15.048828,13.751953 14.925774,13.620696 14.729166,13.5 14.5,13.5 Z"
         id="path16115" />
    </g>
    <path
       d="M 24.55,10.4 L 24.25,11.5 L 24.8,11.6 C 27.901,12.077 31.124,13.834 33.375,18.094 C 35.626,22.353 36.297,29.057 35.8,39 L 35.75,39.5 L 37.5,39.5 L 37.5,39 C 38.003,28.943 36.624,22.147 34.25,17.656 C 31.876,13.166 28.461,11.023 25.063,10.5 L 24.55,10.4 z "
       style="fill:#ffffff;fill-rule:evenodd;stroke-linecap:square;stroke:#ffffff;stroke-width:3;stroke-dasharray:none"
       id="path16089" />
  </g>
  <g
     id="layer1">
    <path
       d="M 22,10 C 32.5,11 38.5,18 38,39 L 15,39 C 15,30 25,32.5 23,18"
       style="fill:#000000;fill-opacity:1;fill-rule:evenodd;stroke:#000000;stroke-width:1px;stroke-linecap:round;stroke-linejoin:miter;stroke-opacity:1"
       id="path3491" />
    <path
       d="M 24,18 C 24.384,20.911 18.447,25.369 16,27 C 13,29 13.181,31.343 11,31 C 9.9583,30.056 12.413,27.962 11,28 C 10,28 11.187,29.232 10,30 C 9,30 5.9968,31 6,26 C 6,24 12,14 12,14 C 12,14 13.886,12.098 14,10.5 C 13.274,9.5056 13.5,8.5 13.5,7.5 C 14.5,6.5 16.5,10 16.5,10 L 18.5,10 C 18.5,10 19.282,8.0081 21,7 C 22,7 22,10 22,10"
       style="fill:#000000;fill-opacity:1;fill-rule:evenodd;stroke:#000000;stroke-width:1px;stroke-linecap:round;stroke-linejoin:round;stroke-opacity:1"
       id="path3495" />
    <path
       d="M 9 23.5 A 0.5 0.5 0 1 1  8,23.5 A 0.5 0.5 0 1 1  9 23.5 z"
       transform="translate(0.5,2)"
       style="opacity:1;fill:#000000;fill-opacity:1;stroke:#ffffff;stroke-width:1;stroke-linecap:round;stroke-linejoin:round;stroke-miterlimit:4;stroke-dasharray:none;stroke-opacity:1"
       id="path3499" />
    <path
       d="M 15 15.5 A 0.5 1.5 0 1 1  14,15.5 A 0.5 1.5 0 1 1  15 15.5 z"
       transform="matrix(0.866,0.5,-0.5,0.866,9.6926,-5.1734)"
       style="opacity:1;fill:#000000;fill-opacity:1;stroke:#ffffff;stroke-width:1;stroke-linecap:round;stroke-linejoin:round;stroke-miterlimit:4;stroke-dasharray:none;stroke-opacity:1"
       id="path3501" />
    <path
       d="M 24.55,10.4 L 24.25,11.5 L 24.8,11.6 C 27.901,12.077 31.124,13.834 33.375,18.094 C 35.626,22.353 36.297,29.057 35.8,39 L 35.75,39.5 L 37.5,39.5 L 37.5,39 C 38.003,28.943 36.624,22.147 34.25,17.656 C 31.876,13.166 28.461,11.023 25.063,10.5 L 24.55,10.4 z "
       style="fill:#ffffff;fill-opacity:1;fill-rule:evenodd;stroke:none;stroke-width:1;stroke-linecap:square;stroke-linejoin:miter;stroke-miterlimit:4;stroke-dasharray:none;stroke-opacity:1"
       id="path8049" />
  </g>
</svg>
